# xmcd
#
# Track frame offsets: 
#        150
#        24773
#        35724
#        49572
#        85355
#        105997
#        120667
#        151087
#        180876
#        203059
#
# Disc length: 2874 seconds
#
# Revision: 0
# Processed by: cddbd v1.5.2PL0 Copyright (c) Steve Scherf et al.
# Submitted via: ExactAudioCopy v1.0b4
#
DISCID=690b380a
DTITLE=Pelle Lindstrom and Downhill Bluegrass Band - Bell Metal Reeds
DYEAR=2016
DGENRE=Blues
TTITLE0=Freight Train Blues
TTITLE1=When I'm Walking
TTITLE2=Tiokronorspolskan
TTITLE3=Careless Love
TTITLE4=Fishin' Blues
TTITLE5=Busted
TTITLE6=Mr Cleanhead
TTITLE7=Stagger Lee
TTITLE8=Honky Tonk Women
TTITLE9=Barkbrodslaten
EXTD=
EXTT0=
EXTT1=
EXTT2=
EXTT3=
EXTT4=
EXTT5=
EXTT6=
EXTT7=
EXTT8=
EXTT9=
PLAYORDER=
